<?xml version="1.0" standalone="no"?>
<!DOCTYPE svg PUBLIC "-//W3C//DTD SVG 20010904//EN"
 "http://www.w3.org/TR/2001/REC-SVG-20010904/DTD/svg10.dtd">
<svg version="1.0" xmlns="http://www.w3.org/2000/svg"
 width="200.000000pt" height="197.000000pt" viewBox="0 0 200.000000 197.000000"
 preserveAspectRatio="xMidYMid meet">

<g transform="translate(0.000000,197.000000) scale(0.100000,-0.100000)"
fill="#000000" stroke="none">
<path d="M583 1640 c-46 -28 -67 -65 -67 -120 0 -80 59 -140 139 -140 80 0
139 60 139 140 0 80 -59 140 -139 140 -22 0 -54 -9 -72 -20z"/>
<path d="M573 1330 c-133 -27 -202 -112 -269 -333 -18 -57 -18 -58 3 -79 34
-33 68 -18 88 39 45 127 68 185 83 203 16 20 17 13 14 -119 -4 -161 -6 -158
83 -224 33 -24 89 -75 125 -113 59 -63 69 -81 104 -180 22 -60 49 -133 62
-161 22 -51 24 -53 63 -53 32 0 44 5 57 25 18 28 20 19 -49 210 -52 147 -64
168 -134 252 -43 51 -43 51 -43 132 0 44 5 115 11 157 l12 77 19 -39 c11 -21
31 -55 44 -75 33 -49 133 -133 160 -134 12 -1 57 -20 100 -42 68 -36 133 -57
267 -87 15 -4 27 -11 27 -16 0 -21 -47 -32 -167 -41 -117 -8 -128 -7 -153 11
-54 38 -83 15 -37 -28 21 -19 23 -29 19 -76 -3 -36 2 -72 14 -107 10 -30 20
-90 23 -134 l6 -80 49 0 c56 0 67 14 36 43 -19 18 -19 21 -5 55 8 20 15 55 15
78 l0 42 92 -7 c50 -3 106 -6 125 -6 l33 0 0 -89 c0 -118 1 -121 60 -121 27 0
51 4 54 9 10 16 -5 41 -25 41 -23 0 -23 -9 1 124 11 60 20 133 20 162 0 29 5
56 11 60 6 3 9 20 7 36 l-5 29 50 -6 c55 -8 67 0 67 48 0 25 -7 31 -67 58 -38
17 -77 42 -89 56 -11 15 -26 23 -32 19 -6 -4 -21 -33 -33 -65 -13 -38 -28 -61
-40 -64 -25 -7 -178 28 -250 57 -81 33 -119 62 -119 90 0 16 -20 41 -66 81
-48 42 -74 76 -100 127 -72 143 -164 189 -321 158z m929 -557 c39 -15 68 -32
68 -40 0 -17 -15 -13 -96 23 -30 13 -54 28 -54 34 0 14 7 13 82 -17z"/>
<path d="M516 798 c-2 -7 -7 -31 -10 -54 -3 -22 -39 -111 -81 -197 -41 -86
-75 -168 -75 -181 0 -37 26 -58 69 -54 36 3 37 4 113 153 43 83 85 174 94 204
l16 54 -33 26 c-63 51 -89 64 -93 49z"/>
</g>
</svg>
